 <svg version="1.1" id="Layer_1" xmlns="http://www.w3.org/2000/svg" xmlns:xlink="http://www.w3.org/1999/xlink" x="0px" y="0px"
      width="175px" height="35px" viewBox="0 0 175 35" enable-background="new 0 0 175 35" xml:space="preserve">
   <g>
     <g enable-background="new    ">
       <path fill="#922EBF" stroke="#922EBF" stroke-linecap="round" stroke-linejoin="round" d="M45.371,8.849v5.657h8.635V8.849
         c0-0.809,0.182-1.414,0.545-1.817c0.363-0.404,0.842-0.606,1.435-0.606c0.603,0,1.089,0.2,1.461,0.6
         c0.372,0.4,0.56,1.009,0.56,1.826v15.558c0,0.817-0.188,1.428-0.566,1.832c-0.377,0.403-0.861,0.606-1.455,0.606
         c-0.602,0-1.083-0.205-1.44-0.613c-0.359-0.408-0.539-1.018-0.539-1.825v-6.642h-8.636v6.642c0,0.817-0.188,1.428-0.564,1.832
         c-0.377,0.403-0.862,0.606-1.455,0.606c-0.602,0-1.082-0.205-1.441-0.613c-0.358-0.408-0.539-1.018-0.539-1.825V8.849
         c0-0.809,0.178-1.414,0.532-1.817c0.354-0.404,0.837-0.606,1.448-0.606c0.602,0,1.089,0.2,1.462,0.6
         C45.183,7.423,45.371,8.031,45.371,8.849z"/>
       <path fill="#922EBF" stroke="#922EBF" stroke-linecap="round" stroke-linejoin="round" d="M72.31,20.271h-7.192
         c0.01,0.836,0.178,1.571,0.506,2.209c0.327,0.639,0.764,1.119,1.307,1.441c0.543,0.323,1.143,0.484,1.799,0.484
         c0.439,0,0.842-0.053,1.205-0.154c0.363-0.104,0.716-0.266,1.057-0.484c0.343-0.221,0.656-0.457,0.943-0.707
         c0.287-0.252,0.66-0.594,1.118-1.023c0.188-0.162,0.458-0.243,0.808-0.243c0.378,0,0.685,0.104,0.916,0.312
         c0.234,0.205,0.353,0.498,0.353,0.875c0,0.332-0.131,0.721-0.392,1.164c-0.262,0.444-0.653,0.871-1.18,1.28
         c-0.525,0.408-1.186,0.747-1.979,1.017c-0.795,0.271-1.709,0.404-2.74,0.404c-2.362,0-4.199-0.674-5.51-2.021
         c-1.312-1.349-1.967-3.175-1.967-5.481c0-1.088,0.162-2.096,0.485-3.025c0.323-0.928,0.795-1.725,1.415-2.391
         c0.62-0.664,1.383-1.174,2.29-1.529c0.907-0.354,1.913-0.53,3.018-0.53c1.438,0,2.669,0.303,3.697,0.909
         c1.028,0.604,1.799,1.39,2.311,2.351c0.513,0.961,0.769,1.938,0.769,2.937c0,0.926-0.266,1.524-0.795,1.799
         C74.017,20.135,73.271,20.271,72.31,20.271z M65.118,18.185h6.667c-0.09-1.259-0.428-2.199-1.017-2.822
         c-0.589-0.625-1.362-0.938-2.323-0.938c-0.916,0-1.668,0.316-2.256,0.95C65.6,16.008,65.244,16.944,65.118,18.185z"/>
       <path fill="#922EBF" stroke="#922EBF" stroke-linecap="round" stroke-linejoin="round" d="M81.121,27.304l0.336-0.822
         l-4.525-11.396c-0.279-0.654-0.418-1.131-0.418-1.428c0-0.314,0.08-0.606,0.242-0.876c0.162-0.269,0.385-0.484,0.667-0.646
         c0.281-0.162,0.577-0.242,0.882-0.242c0.53,0,0.93,0.168,1.199,0.504c0.27,0.338,0.508,0.82,0.714,1.449l3.111,9.051l2.949-8.418
         c0.233-0.683,0.445-1.217,0.633-1.604c0.189-0.386,0.39-0.646,0.601-0.781s0.51-0.201,0.895-0.201
         c0.277,0,0.545,0.073,0.803,0.223c0.256,0.146,0.451,0.348,0.592,0.6c0.141,0.251,0.209,0.516,0.209,0.795
         c-0.035,0.17-0.094,0.412-0.174,0.727c-0.082,0.314-0.182,0.634-0.299,0.957l-4.794,12.555c-0.414,1.104-0.816,1.971-1.213,2.6
         c-0.395,0.629-0.918,1.111-1.567,1.448c-0.652,0.337-1.529,0.505-2.635,0.505c-1.076,0-1.886-0.115-2.425-0.35
         s-0.809-0.66-0.809-1.28c0-0.422,0.129-0.747,0.385-0.978c0.256-0.229,0.635-0.344,1.138-0.344c0.197,0,0.392,0.027,0.579,0.082
         c0.233,0.053,0.437,0.08,0.606,0.08c0.422,0,0.755-0.063,0.997-0.188c0.242-0.126,0.459-0.344,0.651-0.653
         C80.644,28.362,80.869,27.903,81.121,27.304z"/>
       <path fill="#922EBF" stroke="#922EBF" stroke-linecap="round" stroke-linejoin="round" d="M107.939,20.581
         c0,1.193-0.309,2.268-0.924,3.22c-0.615,0.951-1.516,1.696-2.699,2.235c-1.186,0.539-2.592,0.809-4.217,0.809
         c-1.949,0-3.557-0.367-4.822-1.104c-0.898-0.53-1.629-1.237-2.189-2.122c-0.561-0.884-0.842-1.744-0.842-2.579
         c0-0.484,0.17-0.9,0.506-1.246s0.766-0.52,1.287-0.52c0.422,0,0.777,0.136,1.07,0.404c0.291,0.27,0.541,0.67,0.746,1.198
         c0.252,0.629,0.523,1.153,0.816,1.576c0.291,0.423,0.701,0.771,1.23,1.044s1.227,0.411,2.088,0.411
         c1.188,0,2.148-0.276,2.891-0.828c0.74-0.554,1.109-1.242,1.109-2.068c0-0.655-0.197-1.188-0.6-1.596
         c-0.396-0.409-0.916-0.722-1.549-0.937c-0.633-0.217-1.479-0.444-2.539-0.688c-1.418-0.332-2.605-0.721-3.563-1.165
         s-1.715-1.051-2.275-1.819c-0.563-0.768-0.844-1.722-0.844-2.861c0-1.086,0.297-2.053,0.891-2.896
         c0.592-0.845,1.449-1.492,2.572-1.945c1.123-0.455,2.441-0.682,3.961-0.682c1.211,0,2.26,0.15,3.145,0.451
         c0.887,0.301,1.619,0.699,2.203,1.199c0.582,0.498,1.01,1.021,1.279,1.568c0.27,0.549,0.404,1.082,0.404,1.604
         c0,0.477-0.17,0.904-0.506,1.285c-0.338,0.383-0.758,0.574-1.26,0.574c-0.459,0-0.807-0.115-1.045-0.345
         c-0.236-0.229-0.496-0.604-0.773-1.125c-0.359-0.745-0.791-1.327-1.293-1.743c-0.504-0.418-1.313-0.627-2.426-0.627
         c-1.031,0-1.865,0.227-2.498,0.68s-0.949,1-0.949,1.638c0,0.396,0.107,0.735,0.322,1.022c0.217,0.289,0.514,0.534,0.891,0.741
         c0.377,0.206,0.758,0.368,1.145,0.484s1.023,0.288,1.912,0.513c1.113,0.26,2.123,0.549,3.025,0.861
         c0.9,0.314,1.67,0.695,2.303,1.146c0.633,0.449,1.127,1.016,1.48,1.703C107.762,18.742,107.939,19.584,107.939,20.581z"/>
       <path fill="#922EBF" stroke="#922EBF" stroke-linecap="round" stroke-linejoin="round" d="M114.473,13.954v0.443
         c0.691-0.854,1.41-1.479,2.154-1.879c0.746-0.399,1.59-0.6,2.531-0.6c1.133,0,2.174,0.292,3.125,0.875
         c0.951,0.584,1.705,1.438,2.258,2.561s0.826,2.451,0.826,3.986c0,1.133-0.156,2.172-0.477,3.118
         c-0.32,0.947-0.758,1.742-1.314,2.386c-0.557,0.641-1.215,1.135-1.973,1.48c-0.76,0.346-1.574,0.52-2.445,0.52
         c-1.051,0-1.934-0.212-2.645-0.634c-0.715-0.423-1.396-1.042-2.041-1.858v5.521c0,1.617-0.588,2.425-1.766,2.425
         c-0.691,0-1.148-0.209-1.373-0.626c-0.227-0.418-0.338-1.025-0.338-1.824V13.979c0-0.699,0.152-1.224,0.457-1.568
         c0.307-0.346,0.725-0.52,1.254-0.52c0.521,0,0.943,0.178,1.271,0.532S114.473,13.289,114.473,13.954z M121.68,19.302
         c0-0.971-0.148-1.803-0.445-2.498c-0.297-0.697-0.707-1.23-1.232-1.604c-0.525-0.372-1.107-0.56-1.744-0.56
         c-1.016,0-1.871,0.399-2.566,1.199c-0.693,0.799-1.043,1.977-1.043,3.528c0,1.464,0.346,2.603,1.037,3.415
         s1.549,1.219,2.572,1.219c0.609,0,1.176-0.177,1.697-0.531s0.938-0.887,1.252-1.597C121.521,21.165,121.68,20.308,121.68,19.302z"
         />
       <path fill="#922EBF" stroke="#922EBF" stroke-linecap="round" stroke-linejoin="round" d="M137.613,24.771
         c-0.889,0.69-1.748,1.209-2.578,1.556c-0.832,0.346-1.764,0.519-2.795,0.519c-0.943,0-1.771-0.187-2.486-0.56
         c-0.713-0.372-1.264-0.877-1.65-1.515c-0.385-0.639-0.578-1.33-0.578-2.076c0-1.004,0.318-1.862,0.957-2.571
         s1.514-1.187,2.625-1.429c0.234-0.053,0.814-0.176,1.738-0.363c0.926-0.188,1.717-0.361,2.377-0.52
         c0.66-0.156,1.377-0.348,2.148-0.571c-0.045-0.97-0.24-1.683-0.586-2.136s-1.063-0.681-2.148-0.681
         c-0.934,0-1.637,0.132-2.107,0.392c-0.471,0.261-0.875,0.65-1.213,1.172c-0.336,0.521-0.574,0.863-0.713,1.031
         c-0.141,0.166-0.438,0.248-0.895,0.248c-0.414,0-0.771-0.133-1.07-0.396c-0.301-0.264-0.451-0.604-0.451-1.018
         c0-0.646,0.229-1.274,0.688-1.887c0.457-0.609,1.172-1.113,2.141-1.509c0.971-0.396,2.178-0.592,3.623-0.592
         c1.617,0,2.889,0.19,3.813,0.571c0.926,0.383,1.578,0.985,1.961,1.813s0.572,1.922,0.572,3.287c0,0.861-0.002,1.594-0.008,2.195
         c-0.004,0.602-0.012,1.271-0.02,2.006c0,0.691,0.113,1.412,0.344,2.162c0.229,0.75,0.344,1.232,0.344,1.449
         c0,0.377-0.178,0.721-0.533,1.029c-0.354,0.311-0.756,0.465-1.205,0.465c-0.377,0-0.75-0.178-1.117-0.531
         C138.422,25.957,138.027,25.442,137.613,24.771z M137.371,19.449c-0.539,0.198-1.322,0.405-2.352,0.627
         c-1.029,0.22-1.74,0.382-2.135,0.483c-0.396,0.104-0.773,0.307-1.133,0.606c-0.357,0.301-0.537,0.722-0.537,1.261
         c0,0.557,0.211,1.029,0.633,1.42c0.422,0.392,0.975,0.586,1.656,0.586c0.727,0,1.398-0.158,2.014-0.479
         c0.615-0.318,1.066-0.729,1.355-1.232c0.33-0.557,0.496-1.473,0.496-2.748v-0.524H137.371z"/>
       <path fill="#922EBF" stroke="#922EBF" stroke-linecap="round" stroke-linejoin="round" d="M157.9,22.292
         c0,0.458-0.137,0.947-0.41,1.468c-0.275,0.521-0.691,1.019-1.254,1.488c-0.561,0.472-1.268,0.853-2.121,1.14
         c-0.854,0.286-1.814,0.43-2.883,0.43c-2.271,0-4.047-0.661-5.32-1.985c-1.275-1.325-1.912-3.101-1.912-5.328
         c0-1.508,0.291-2.842,0.875-4c0.584-1.157,1.428-2.055,2.531-2.688c1.105-0.633,2.426-0.948,3.961-0.948
         c0.951,0,1.826,0.139,2.621,0.417c0.793,0.277,1.467,0.638,2.02,1.078c0.553,0.438,0.975,0.908,1.266,1.406
         c0.293,0.498,0.439,0.963,0.439,1.396c0,0.438-0.164,0.813-0.492,1.118s-0.727,0.457-1.193,0.457c-0.305,0-0.559-0.078-0.76-0.235
         c-0.203-0.157-0.43-0.411-0.682-0.761c-0.447-0.684-0.918-1.194-1.406-1.536c-0.49-0.341-1.111-0.512-1.867-0.512
         c-1.086,0-1.961,0.425-2.625,1.272c-0.666,0.848-0.998,2.01-0.998,3.481c0,0.69,0.086,1.327,0.256,1.905
         c0.172,0.58,0.418,1.074,0.742,1.481c0.322,0.409,0.713,0.72,1.172,0.931c0.457,0.211,0.961,0.315,1.508,0.315
         c0.736,0,1.367-0.17,1.895-0.512c0.525-0.341,0.99-0.862,1.395-1.563c0.225-0.412,0.467-0.736,0.727-0.97
         c0.262-0.233,0.58-0.351,0.957-0.351c0.449,0,0.822,0.17,1.117,0.512C157.752,21.542,157.9,21.905,157.9,22.292z"/>
       <path fill="#922EBF" stroke="#922EBF" stroke-linecap="round" stroke-linejoin="round" d="M171.369,20.271h-7.191
         c0.008,0.836,0.176,1.571,0.504,2.209c0.328,0.639,0.764,1.119,1.307,1.441c0.545,0.323,1.145,0.484,1.801,0.484
         c0.438,0,0.842-0.053,1.205-0.154c0.361-0.104,0.717-0.266,1.059-0.484c0.34-0.221,0.654-0.457,0.941-0.707
         c0.285-0.252,0.658-0.594,1.117-1.023c0.189-0.162,0.457-0.243,0.811-0.243c0.377,0,0.682,0.104,0.916,0.312
         c0.23,0.205,0.35,0.498,0.35,0.875c0,0.332-0.131,0.721-0.391,1.164c-0.262,0.444-0.654,0.871-1.18,1.28
         c-0.525,0.408-1.186,0.747-1.98,1.017c-0.795,0.271-1.709,0.404-2.742,0.404c-2.359,0-4.195-0.674-5.51-2.021
         c-1.311-1.349-1.967-3.175-1.967-5.481c0-1.088,0.162-2.096,0.486-3.025c0.322-0.928,0.795-1.725,1.414-2.391
         c0.619-0.664,1.383-1.174,2.289-1.529c0.908-0.354,1.914-0.53,3.018-0.53c1.438,0,2.67,0.303,3.697,0.909
         c1.029,0.604,1.799,1.39,2.311,2.351s0.768,1.938,0.768,2.937c0,0.926-0.264,1.524-0.795,1.799
         C173.076,20.135,172.33,20.271,171.369,20.271z M164.178,18.185h6.668c-0.092-1.259-0.43-2.199-1.018-2.822
         c-0.59-0.625-1.363-0.938-2.324-0.938c-0.916,0-1.668,0.316-2.256,0.95C164.66,16.008,164.303,16.944,164.178,18.185z"/>
     </g>
     <g id="Group-6">
       <path id="Shape" fill="#922EBF" d="M4.349,12.839c-1.199,3.92-0.325,8.014,2.018,11.229l-1.022,3.349
         c-0.139,0.457,0.118,0.94,0.575,1.081c0.141,0.043,0.288,0.049,0.432,0.018l3.887-0.817c1.113,0.711,2.346,1.286,3.681,1.694
         c2.781,0.851,5.606,0.85,8.162,0.147C13.529,23.726,6.903,17.263,4.349,12.839z"/>
       
         <g id="Group" transform="translate(200.926590, 197.397801) rotate(-4.000000) translate(-200.926590, -197.397801) translate(14.926590, 12.897801)">
         <g id="icon-planet-2" transform="translate(0.000000, 0.000000)">
           <path id="Shape_1_" fill="#922EBF" d="M0.668-22.335c-2.185,2.185-1.405,6.8,1.573,11.977
             C3.915-7.404,10.517,0.893,18.155,5.556c3.715,2.27,9.793,3.758,11.975,1.575c2.186-2.185,1.914-5.773-1.063-10.948
             c0.272-0.554,0.616-2.544,0.62-3.494c0.038-7.861-6.284-14.107-14.583-14.155c-0.945-0.005-2.102,0.121-3.039,0.339
             C6.89-24.106,2.852-24.518,0.668-22.335z M27.471,4.89C19.344,7.492-1.107-15.769,3.059-19.942
             c0.968-0.962,2.432-0.858,4.965,0.426c-1.122,0.66-1.908,1.313-2.787,2.256C8.073-10.15,17.638-0.548,24.768,2.146
             c1.015-0.806,1.78-1.542,2.53-2.57C28.358,1.882,28.389,3.439,27.471,4.89z"/>
         </g>
       </g>
     </g>
   </g>
   </svg>
